<svg width="1015" height="1065" viewBox="0 0 1015 1065" fill="none" xmlns="http://www.w3.org/2000/svg">
<g clip-path="url(#clip0_386_18552)">
<rect width="1015" height="1216.1" transform="translate(0 -76)" fill="#1B2064"/>
<path d="M-114.642 1093.6C-114.133 1058.61 -100.271 1025.8 -75.4702 1001L-75.4701 1001C-50.204 975.731 -16.6144 961.817 19.1246 961.817C54.8637 961.817 88.4533 975.731 113.726 1001C138.526 1025.8 152.388 1058.61 152.897 1093.6H103.823C102.757 1047.81 65.1728 1010.89 19.1277 1010.89C-26.9174 1010.89 -64.5013 1047.81 -65.5675 1093.6H-114.642Z" stroke="#782BF7" stroke-width="4"/>
<path d="M224.801 987.339C259.791 987.848 292.601 1001.71 317.402 1026.51L317.402 1026.51C342.674 1051.78 356.588 1085.37 356.588 1121.11C356.588 1156.84 342.674 1190.43 317.402 1215.71C292.601 1240.51 259.791 1254.37 224.801 1254.88V1205.8C270.597 1204.74 307.519 1167.15 307.519 1121.11C307.519 1075.06 270.594 1037.48 224.801 1036.41V987.339Z" stroke="#00E3AE" stroke-width="4"/>
<path d="M819.44 958.617L819.44 958.617C844.24 933.817 877.05 919.955 912.041 919.446V968.52C866.247 969.586 829.322 1007.17 829.322 1053.22C829.322 1099.26 866.244 1136.84 912.041 1137.91V1186.98C877.05 1186.48 844.24 1172.61 819.44 1147.81C794.168 1122.54 780.254 1088.95 780.254 1053.21C780.254 1017.47 794.165 983.883 819.44 958.617Z" stroke="#782BF7" stroke-width="4"/>
<path d="M946.667 32.2943C947.176 -2.69643 961.038 -35.5064 985.838 -60.3066L985.839 -60.3068C1011.1 -85.5789 1044.69 -99.4927 1080.43 -99.4927C1116.17 -99.4927 1149.76 -85.5789 1175.03 -60.3066C1199.83 -35.5064 1213.7 -2.69643 1214.21 32.2943H1165.13C1164.07 -13.5022 1126.48 -50.4242 1080.44 -50.4242C1034.39 -50.4242 996.807 -13.4992 995.741 32.2943H946.667Z" stroke="#782BF7" stroke-width="4"/>
<path d="M634.443 850.037L634.443 850.037C616.906 819.663 612.008 784.383 620.573 750.453L667.975 763.155C657.152 807.664 683.896 853.057 728.375 864.975C772.851 876.893 818.711 850.956 831.593 806.996L878.995 819.697C869.447 853.364 847.566 881.468 817.192 899.005C786.24 916.875 750.193 921.621 715.672 912.371C681.151 903.121 652.307 880.988 634.443 850.037Z" stroke="#782BF7" stroke-width="4"/>
<path d="M358.237 739.872L358.237 739.872C367.368 706.008 388.896 677.632 418.973 659.744L443.443 702.282C404.28 726.04 391.012 777.028 413.973 816.943C436.933 856.855 487.678 871.023 527.906 849.112L552.376 891.65C521.792 908.656 486.44 913 452.576 903.869C418.069 894.565 389.259 872.387 371.438 841.407C353.618 810.428 348.928 774.372 358.237 739.872Z" stroke="#00E3AE" stroke-width="4"/>
<path d="M-114.642 32.2943C-114.133 -2.69643 -100.271 -35.5064 -75.4702 -60.3066L-75.4701 -60.3068C-50.204 -85.5789 -16.6144 -99.4927 19.1246 -99.4927C54.8637 -99.4927 88.4533 -85.5789 113.726 -60.3066C138.526 -35.5064 152.388 -2.69643 152.897 32.2943H103.823C102.757 -13.5022 65.1728 -50.4242 19.1277 -50.4242C-26.9174 -50.4242 -64.5013 -13.4992 -65.5675 32.2943H-114.642Z" stroke="#782BF7" stroke-width="4"/>
<path d="M621.015 271.787C621.524 236.796 635.386 203.986 660.186 179.186L660.186 179.186C685.452 153.914 719.042 140 754.781 140C790.52 140 824.11 153.914 849.382 179.186C874.182 203.986 888.044 236.796 888.553 271.787H839.479C838.413 225.991 800.829 189.069 754.784 189.069C708.736 189.069 671.155 225.993 670.089 271.787H621.015Z" stroke="#782BF7" stroke-width="4"/>
<path d="M780.015 635.787C780.524 600.796 794.386 567.986 819.186 543.186L819.186 543.186C844.452 517.914 878.042 504 913.781 504C949.52 504 983.11 517.914 1008.38 543.186C1033.18 567.986 1047.04 600.796 1047.55 635.787H998.479C997.413 589.991 959.829 553.069 913.784 553.069C867.736 553.069 830.155 589.994 829.089 635.787H780.015Z" stroke="#00E3AE" stroke-width="4"/>
<path d="M44.4677 636.437C44.9768 601.446 58.8389 568.636 83.6392 543.836L83.6394 543.836C108.902 518.564 142.495 504.65 178.234 504.65C213.973 504.65 247.563 518.564 272.835 543.836C297.635 568.636 311.497 601.446 312.006 636.437H262.932C261.866 590.64 224.282 553.718 178.237 553.718C132.192 553.718 94.6081 590.643 93.5419 636.437H44.4677Z" stroke="#00E3AE" stroke-width="4"/>
<path d="M534.015 755.787C534.524 720.796 548.386 687.986 573.186 663.186L573.186 663.186C598.452 637.914 632.042 624 667.781 624C703.52 624 737.11 637.914 762.382 663.186C787.182 687.986 801.044 720.796 801.553 755.787H752.479C751.413 709.99 713.829 673.068 667.784 673.068C621.736 673.068 584.155 709.993 583.089 755.787H534.015Z" stroke="#00E3AE" stroke-width="4"/>
<path d="M700.552 1035C700.043 1069.99 686.181 1102.8 661.38 1127.6L661.38 1127.6C636.117 1152.87 602.525 1166.79 566.786 1166.79C531.047 1166.79 497.457 1152.87 472.185 1127.6C447.384 1102.8 433.522 1069.99 433.013 1035L482.087 1035C483.153 1080.8 520.737 1117.72 566.783 1117.72C612.828 1117.72 650.411 1080.79 651.478 1035L700.552 1035Z" stroke="#00E3AE" stroke-width="4"/>
<path d="M196.1 426.022L196.1 426.022C171.3 401.222 157.438 368.412 156.929 333.421H206.003C207.069 379.215 244.653 416.14 290.698 416.14C336.743 416.14 374.327 379.218 375.393 333.421H424.467C423.958 368.412 410.096 401.222 385.296 426.022C360.024 451.295 326.434 465.208 290.695 465.208C254.956 465.208 221.366 451.295 196.1 426.022Z" stroke="#782BF7" stroke-width="4"/>
<path d="M429.186 426.186L429.186 426.186C453.986 401.386 486.796 387.524 521.787 387.015V436.089C475.993 437.155 439.068 474.739 439.068 520.784C439.068 566.829 475.991 604.413 521.787 605.479V654.553C486.796 654.044 453.986 640.182 429.186 615.382C403.914 590.11 390 556.52 390 520.781C390 485.042 403.914 451.452 429.186 426.186Z" stroke="#00E3AE" stroke-width="4"/>
<path d="M438.556 62C438.047 96.9907 424.185 129.801 399.384 154.601L399.384 154.601C374.115 179.873 340.525 193.787 304.786 193.787C269.047 193.787 235.458 179.873 210.185 154.601C185.385 129.801 171.523 96.9907 171.014 62L220.088 62C221.154 107.796 258.738 144.718 304.783 144.718C350.828 144.718 388.415 107.797 389.482 62L438.556 62Z" stroke="#00E3AE" stroke-width="4"/>
<path d="M883.49 677.932C917.184 668.482 952.58 672.454 983.403 689.188L983.403 689.188C1014.81 706.233 1037.69 734.489 1047.84 768.757C1057.99 803.024 1054.2 839.182 1037.14 870.592C1020.41 901.415 992.886 924.025 959.481 934.452L945.542 887.399C989.15 873.369 1013.88 826.846 1000.8 782.697C987.718 738.545 941.639 713 897.429 724.985L883.49 677.932Z" stroke="#00E3AE" stroke-width="4"/>
<path d="M590.827 507.883L590.827 507.883C566.026 483.082 552.164 450.272 551.655 415.282H600.729C601.796 461.075 639.376 498 685.425 498C731.47 498 769.054 461.078 770.12 415.282H819.194C818.685 450.272 804.823 483.082 780.023 507.883C754.75 533.155 721.161 547.069 685.422 547.069C649.682 547.069 616.093 533.155 590.827 507.883Z" stroke="#782BF7" stroke-width="4"/>
<path d="M41.2134 304.117C15.9411 278.845 2.02734 245.255 2.02734 209.516C2.02734 173.777 15.9382 140.188 41.2103 114.916C66.0106 90.1152 98.8206 76.2531 133.811 75.744V124.818C88.0146 125.885 51.0958 163.475 51.0958 209.519C51.0958 255.565 88.0179 293.149 133.814 294.215V343.289C98.8236 342.78 66.0136 328.918 41.2134 304.117Z" stroke="#00E3AE" stroke-width="4"/>
<path d="M470.186 111.186L470.186 111.186C494.986 86.3857 527.796 72.5236 562.787 72.0145V121.089C516.993 122.155 480.068 159.739 480.068 205.784C480.068 251.829 516.991 289.413 562.787 290.479V339.553C527.796 339.044 494.986 325.182 470.186 300.382C444.914 275.11 431 241.52 431 205.781C431 170.042 444.914 136.452 470.186 111.186Z" stroke="#782BF7" stroke-width="4"/>
<path d="M86.1863 900.601L86.1861 900.601C61.3858 875.801 47.5236 842.991 47.0145 808L96.0887 808C97.1549 853.794 134.736 890.719 180.784 890.719C226.829 890.719 264.413 853.797 265.479 808L314.553 808C314.044 842.991 300.182 875.801 275.382 900.601C250.11 925.873 216.52 939.787 180.781 939.787C145.042 939.787 111.449 925.873 86.1863 900.601Z" stroke="#782BF7" stroke-width="4"/>
<path d="M1041.7 476.057C1006.06 478.704 971.535 467.315 944.461 443.985C917.387 420.655 901.027 388.185 898.376 352.548C895.778 317.573 906.698 283.67 929.154 256.83L966.33 288.866C937.243 324.255 941.607 376.759 976.491 406.818C1011.37 436.877 1063.95 433.442 1094.65 399.446L1131.83 431.481C1108.6 457.653 1076.68 473.459 1041.7 476.057Z" stroke="#782BF7" stroke-width="4"/>
<path d="M819.44 -102.692L819.44 -102.692C844.24 -127.493 877.05 -141.355 912.041 -141.864V-92.7897C866.247 -91.7235 829.322 -54.1396 829.322 -8.09451C829.322 37.9506 866.244 75.5345 912.041 76.6007V125.675C877.05 125.166 844.24 111.304 819.44 86.5034C794.168 61.2311 780.254 27.6415 780.254 -8.09753C780.254 -43.8367 794.165 -77.4262 819.44 -102.692Z" stroke="#782BF7" stroke-width="4"/>
<path d="M-117.238 672.907C-82.2476 673.416 -49.4376 687.278 -24.6374 712.078L-24.6371 712.078C0.634834 737.341 14.5487 770.934 14.5487 806.673C14.5487 842.412 0.634895 876.002 -24.6374 901.274C-49.4376 926.074 -82.2476 939.936 -117.238 940.445V891.371C-71.4418 890.305 -34.5198 852.721 -34.5198 806.676C-34.5198 760.628 -71.4448 723.047 -117.238 721.981V672.907Z" stroke="#00E3AE" stroke-width="4"/>
<path d="M15.6558 509.158C-19.9845 511.805 -54.5121 500.416 -81.5862 477.086C-108.66 453.756 -125.02 421.286 -127.671 385.649C-130.269 350.674 -119.349 316.771 -96.8928 289.931L-59.7169 321.967C-88.804 357.356 -84.4398 409.86 -49.5561 439.919C-14.6727 469.978 37.9011 466.544 68.6035 432.547L105.779 464.582C82.549 490.754 50.6306 506.56 15.6558 509.158Z" stroke="#782BF7" stroke-width="4"/>
<path d="M440.811 25.6107C441.321 -9.38002 455.183 -42.19 479.983 -66.9902L479.983 -66.9905C505.246 -92.2624 538.839 -106.176 574.578 -106.176C610.317 -106.176 643.906 -92.2625 669.179 -66.9902C693.979 -42.19 707.841 -9.38002 708.35 25.6107H659.276C658.21 -20.1858 620.626 -57.1078 574.581 -57.1078C528.536 -57.1078 490.952 -20.1828 489.886 25.6107H440.811Z" stroke="#00E3AE" stroke-width="4"/>
<path d="M307.941 349L359 233H322.529L285.086 318.067L271.471 291H235L264.176 349H307.941Z" stroke="#782BF7" stroke-width="4.59909"/>
<path d="M324.941 60L376 -56H339.529L302.086 29.0667L288.471 2H252L281.176 60H324.941Z" stroke="#00E3AE" stroke-width="4.59909"/>
<path d="M972.941 1096L1024 980H987.529L950.086 1065.07L936.471 1038H900L929.176 1096H972.941Z" stroke="#00E3AE" stroke-width="4.59909"/>
<path d="M703.941 413L755 297H718.529L681.086 382.067L667.471 355H631L660.176 413H703.941Z" stroke="#782BF7" stroke-width="4.59909"/>
<path d="M585.941 1033L637 917H600.529L563.086 1002.07L549.471 975H513L542.176 1033H585.941Z" stroke="#00E3AE" stroke-width="4.59909"/>
<path d="M202.941 806L254 690H217.529L180.086 775.067L166.471 748H130L159.176 806H202.941Z" stroke="#782BF7" stroke-width="4.59909"/>
<path d="M1014.94 210L1066 94H1029.53L992.086 179.067L978.471 152H942L971.176 210H1014.94Z" stroke="#782BF7" stroke-width="4.59909"/>
</g>
<defs>
<clipPath id="clip0_386_18552">
<rect width="1015" height="1216.1" fill="white" transform="translate(0 -76)"/>
</clipPath>
</defs>
</svg>
