<svg width="42" height="39" viewBox="0 0 42 39" fill="none" xmlns="http://www.w3.org/2000/svg">
<path fill-rule="evenodd" clip-rule="evenodd" d="M17.4171 26H14.2671V17H17.4171V26V26Z" fill="white"/>
<path fill-rule="evenodd" clip-rule="evenodd" d="M15.8327 15H15.8148C14.8748 15 14.2671 14.333 14.2671 13.4995C14.2671 12.6483 14.8933 12 15.8512 12C16.809 12 17.3989 12.6483 17.4171 13.4995C17.4171 14.333 16.809 15 15.8327 15V15Z" fill="white"/>
<path fill-rule="evenodd" clip-rule="evenodd" d="M28.967 25.9998H25.8716V21.2954C25.8716 20.1137 25.4237 19.3074 24.3031 19.3074C23.4479 19.3074 22.9386 19.851 22.7149 20.376C22.633 20.5641 22.6129 20.8263 22.6129 21.0891V26H19.5171C19.5171 26 19.5579 18.0318 19.5171 17.2067H22.6129V18.4522C23.0238 17.8535 23.7596 17 25.4031 17C27.44 17 28.9671 18.2571 28.9671 20.958L28.967 25.9998V25.9998Z" fill="white"/>
</svg>
