<svg width="42" height="39" viewBox="0 0 42 39" fill="none" xmlns="http://www.w3.org/2000/svg">
<path fill-rule="evenodd" clip-rule="evenodd" d="M20.8447 16.9262L20.8742 17.402L20.3811 17.3437C18.5861 17.1204 17.0179 16.363 15.6864 15.091L15.0354 14.4599L14.8677 14.926C14.5127 15.9649 14.7395 17.0621 15.4792 17.8001C15.8738 18.2079 15.785 18.2661 15.1045 18.0234C14.8677 17.9457 14.6606 17.8874 14.6409 17.9166C14.5719 17.9845 14.8086 18.8681 14.996 19.2177C15.2524 19.7032 15.7751 20.179 16.3472 20.4605L16.8305 20.6839L16.2584 20.6936C15.7061 20.6936 15.6864 20.7033 15.7455 20.9072C15.9428 21.5383 16.722 22.2083 17.5899 22.4996L18.2014 22.7035L17.6688 23.0142C16.8798 23.4609 15.9527 23.7133 15.0256 23.7328C14.5817 23.7425 14.2168 23.7813 14.2168 23.8104C14.2168 23.9075 15.4201 24.4513 16.1203 24.6649C18.2211 25.296 20.7164 25.0242 22.5904 23.9464C23.9219 23.1793 25.2534 21.6549 25.8747 20.179C26.2101 19.3925 26.5454 17.9554 26.5454 17.266C26.5454 16.8194 26.575 16.7611 27.1273 16.2271C27.4528 15.9164 27.7585 15.5765 27.8177 15.4794C27.9163 15.2949 27.9065 15.2949 27.4035 15.46C26.5651 15.7513 26.4468 15.7124 26.861 15.2755C27.1668 14.9648 27.5317 14.4016 27.5317 14.2366C27.5317 14.2074 27.3837 14.256 27.2161 14.3434C27.0385 14.4405 26.644 14.5861 26.3481 14.6735L25.8155 14.8386L25.3323 14.5181C25.066 14.3434 24.6912 14.1492 24.4939 14.0909C23.9909 13.955 23.2216 13.9744 22.7679 14.1297C21.5351 14.5667 20.7559 15.693 20.8447 16.9262Z" fill="white"/>
</svg>
