<svg width="200" height="40" viewBox="0 0 200 40" fill="none" xmlns="http://www.w3.org/2000/svg">
<g clip-path="url(#clip0_386_18529)">
<path d="M23.75 20L32.5 0H26.25L19.8333 14.6667L17.5 10H11.25L16.25 20H23.75Z" fill="#782BF7"/>
<path d="M20 33.75C27.5939 33.75 33.75 27.5939 33.75 20H40C40 31.0457 31.0457 40 20 40C8.95431 40 0 31.0457 0 20H6.25C6.25 27.5939 12.4061 33.75 20 33.75Z" fill="#782BF7"/>
<path d="M66.0391 11.25H62.7023V22.1245C62.7023 24.7891 61.5981 26.0374 59.2695 26.0374C56.941 26.0374 55.8128 24.7891 55.8128 22.1245V11.25H52.5V22.2685C52.5 26.5895 54.8525 28.75 59.2695 28.75C63.6866 28.75 66.0391 26.5895 66.0391 22.2685V11.25Z" fill="#131516"/>
<path d="M73.4864 28.75C77.0632 28.75 78.9597 27.1896 78.9597 25.0291C78.9597 23.0367 77.6634 21.9805 74.1586 21.2843C72.1421 20.8762 71.542 20.4681 71.542 19.82C71.542 19.1958 72.3582 18.6677 73.7025 18.6677C75.3108 18.6677 76.2711 19.2918 76.9672 20.5401L79.0077 18.8117C77.9034 17.0833 76.4151 16.2671 73.6545 16.2671C70.1016 16.2671 68.2532 18.1876 68.2532 20.132C68.2532 22.1245 69.5015 23.2767 73.2464 24.0209C74.9988 24.381 75.6469 24.7171 75.6469 25.2692C75.6469 25.9174 74.8547 26.3495 73.4384 26.3495C71.806 26.3495 70.5097 25.9174 69.8376 24.477L67.9171 26.4455C69.0214 28.0778 71.0139 28.75 73.4864 28.75Z" fill="#131516"/>
<path d="M92.1518 22.4606C92.1518 18.5237 90.1113 16.2671 86.3665 16.2671C82.5016 16.2671 80.3171 18.5717 80.3171 22.5086C80.3171 26.4455 82.5736 28.75 86.5585 28.75C89.2711 28.75 91.1196 27.7178 91.8877 25.7973L89.1991 24.8131C88.8631 25.7733 87.9508 26.3014 86.5585 26.3014C84.9502 26.3014 83.8939 25.4853 83.5578 23.7569H92.0558C92.1038 23.4448 92.1518 22.7966 92.1518 22.4606ZM86.3425 18.6917C87.8548 18.6917 88.8631 19.6519 89.1271 21.4523H83.5338C83.7979 19.6279 84.7581 18.6917 86.3425 18.6917Z" fill="#131516"/>
<path d="M99.6543 16.2671C97.7818 16.2671 97.5298 17.2034 96.9056 18.8597L96.6896 16.5072H93.8329V28.75H97.1217V22.2925C97.1217 20.108 98.562 19.0518 100.002 19.0518C100.626 19.0518 101.111 19.0278 101.111 19.0278V16.5312C101.111 16.3632 100.182 16.2671 99.6543 16.2671Z" fill="#131516"/>
<path d="M105.972 25.8333V20.9722H112.778V18.0556H105.972V14.1667H114.722V11.25H103.056V28.75H115.208V25.8333H105.972Z" fill="#131516"/>
<path d="M125.227 16.1111L122.203 26.2054L119.25 16.1111H115.721L120.282 28.75H124.075L128.636 16.1111H125.227Z" fill="#131516"/>
<path d="M131.979 14.6528C133.438 14.6528 133.924 13.9999 133.924 13.1944C133.924 12.2222 133.438 11.25 131.979 11.25C130.521 11.25 129.792 12.2222 129.792 13.1944C129.792 14.1436 130.521 14.6528 131.979 14.6528ZM133.681 16.1111H130.278V28.75H133.681V16.1111Z" fill="#131516"/>
<path d="M144.375 11.25V18.4516C143.678 17.1313 142.382 16.2671 140.63 16.2671C137.461 16.2671 135.493 18.5957 135.493 22.5326C135.493 26.4455 137.437 28.75 140.63 28.75C142.478 28.75 143.894 27.7898 144.591 26.3495L144.735 28.75H147.663V11.25H144.375ZM141.614 26.2294C139.862 26.2294 138.805 24.9571 138.805 22.5086C138.805 20.06 139.862 18.7877 141.614 18.7877C143.198 18.7877 144.207 19.892 144.375 21.8124V23.2047C144.207 25.1732 143.174 26.2294 141.614 26.2294Z" fill="#131516"/>
<path d="M160.96 22.4606C160.96 18.5237 158.919 16.2671 155.174 16.2671C151.31 16.2671 149.125 18.5717 149.125 22.5086C149.125 26.4455 151.382 28.75 155.366 28.75C158.079 28.75 159.927 27.7178 160.696 25.7973L158.007 24.8131C157.671 25.7733 156.759 26.3014 155.366 26.3014C153.758 26.3014 152.702 25.4853 152.366 23.7569H160.864C160.912 23.4448 160.96 22.7966 160.96 22.4606ZM155.15 18.6917C156.663 18.6917 157.671 19.6519 157.935 21.4523H152.342C152.606 19.6279 153.566 18.6917 155.15 18.6917Z" fill="#131516"/>
<path d="M169.794 16.2671C167.994 16.2671 166.506 17.0353 165.714 18.6437L165.594 16.5072H162.641V28.75H165.93V22.1725C165.93 19.7719 167.298 18.8597 168.69 18.8597C169.939 18.8597 170.827 19.5319 170.827 21.5964V28.75H174.115V20.6361C174.115 17.7315 172.291 16.2671 169.794 16.2671Z" fill="#131516"/>
<path d="M181.608 16.2671C177.767 16.2671 175.487 18.5717 175.487 22.5086C175.487 26.4455 177.743 28.75 181.728 28.75C184.777 28.75 186.649 27.2617 187.153 25.1252L184.177 24.165C183.937 25.5333 183.12 26.3014 181.68 26.3014C179.904 26.3014 178.775 25.1012 178.775 22.5326C178.775 20.012 179.832 18.7157 181.704 18.7157C182.976 18.7157 183.745 19.4599 184.033 20.9002L187.105 19.796C186.529 17.8275 184.993 16.2671 181.608 16.2671Z" fill="#131516"/>
<path d="M199.964 22.4606C199.964 18.5237 197.924 16.2672 194.179 16.2672C190.314 16.2672 188.13 18.5717 188.13 22.5086C188.13 26.4455 190.386 28.75 194.371 28.75C197.084 28.75 198.932 27.7178 199.7 25.7973L197.012 24.8131C196.676 25.7733 195.763 26.3015 194.371 26.3015C192.763 26.3015 191.706 25.4853 191.37 23.7569H199.868C199.916 23.4448 199.964 22.7967 199.964 22.4606ZM194.155 18.6917C195.667 18.6917 196.676 19.6519 196.94 21.4524H191.346C191.61 19.6279 192.571 18.6917 194.155 18.6917Z" fill="#131516"/>
</g>
<defs>
<clipPath id="clip0_386_18529">
<rect width="200" height="40" fill="white"/>
</clipPath>
</defs>
</svg>
